<svg xmlns="http://www.w3.org/2000/svg" width="42.847" height="39.786" viewBox="0 0 42.847 39.786">
    <defs>
        <style>
            .prefix__cls-1{fill:#414042}
        </style>
    </defs>
    <g id="prefix__Group_282" data-name="Group 282" transform="translate(-760 -1970)">
        <g id="prefix__Group_278" data-name="Group 278" transform="translate(760 1979.182)">
            <path id="prefix__Path_734" d="M782.189 2059.075h-1.53a.764.764 0 0 1-.541-.224 4.482 4.482 0 0 0-3.147-1.306h-16.206a.765.765 0 0 1-.765-.765v-26.014a.765.765 0 0 1 .765-.765h9.181a.765.765 0 0 1 0 1.53h-8.416v24.484h15.44a6.027 6.027 0 0 1 3.992 1.53h.922a6.027 6.027 0 0 1 3.992-1.53h15.44v-24.485h-3.826a.765.765 0 0 1 0-1.53h4.591a.765.765 0 0 1 .765.765v26.014a.765.765 0 0 1-.765.765h-16.204a4.482 4.482 0 0 0-3.147 1.306.764.764 0 0 1-.541.225z" class="prefix__cls-1" data-name="Path 734" transform="translate(-760 -2030)"/>
        </g>
        <g id="prefix__Group_279" data-name="Group 279" transform="translate(760 2008.256)">
            <path id="prefix__Path_735" d="M802.082 2221.53h-41.317a.765.765 0 1 1 0-1.53h41.317a.765.765 0 1 1 0 1.53z" class="prefix__cls-1" data-name="Path 735" transform="translate(-760 -2220)"/>
        </g>
        <g id="prefix__Group_280" data-name="Group 280" transform="translate(769.181 1970)">
            <path id="prefix__Path_736" d="M832.241 2008.257a.765.765 0 0 1-.754-.641 14.681 14.681 0 0 0-1.975-4.863 10.825 10.825 0 0 0-8.8-5.209.765.765 0 0 1-.713-.763v-26.014a.765.765 0 0 1 .817-.763 12.455 12.455 0 0 1 10.016 5.962 15.966 15.966 0 0 1 2.164 5.389.765.765 0 0 1 .01.124v26.014a.765.765 0 0 1-.7.763l-.065.001zm-10.711-12.175a12.423 12.423 0 0 1 9.3 5.9c.238.377.452.752.643 1.117v-21.549a14.819 14.819 0 0 0-1.965-4.808 10.753 10.753 0 0 0-7.982-5.129z" class="prefix__cls-1" data-name="Path 736" transform="translate(-820 -1970)"/>
        </g>
        <g id="prefix__Group_281" data-name="Group 281" transform="translate(780.658 1973.061)">
            <path id="prefix__Path_737" d="M895.764 2025.192a.765.765 0 0 1-.7-1.069c.127-.292 3.214-7.039 16-8.058v-24.478c-3.509.3-8.115 1.222-11.617 3.841a9.76 9.76 0 0 0-2.986 3.3.765.765 0 0 1-1.4-.616c.13-.3 3.329-7.29 16.722-8.109a.765.765 0 0 1 .812.764v26.014a.765.765 0 0 1-.719.764c-3.584.219-8.65 1.074-12.428 3.9a9.762 9.762 0 0 0-2.986 3.3.768.768 0 0 1-.698.447z" class="prefix__cls-1" data-name="Path 737" transform="translate(-895 -1989.998)"/>
        </g>
    </g>
</svg>
