<svg xmlns="http://www.w3.org/2000/svg" width="28.028" height="28.454" viewBox="0 0 28.028 28.454">
    <g id="prefix___x31__stroke" transform="translate(.034)">
        <g id="prefix__Google">
            <path id="prefix__Rectangle_359" d="M0 0H28V28H0z" data-name="Rectangle 359" transform="translate(-.034 .454)" style="fill:none"/>
            <path id="prefix__Path_762" d="M7.162 41.916a8.364 8.364 0 0 1 .425-2.626l-4.768-3.642a14.245 14.245 0 0 0 0 12.531l4.763-3.649a8.37 8.37 0 0 1-.42-2.615" data-name="Path 762" transform="translate(-1.064 -27.768)" style="fill-rule:evenodd;fill:#fbbc05"/>
            <path id="prefix__Path_763" d="M20.653 5.788a8.2 8.2 0 0 1 5.217 1.865l4.121-4.116A14.159 14.159 0 0 0 7.938 7.88l4.768 3.641a8.35 8.35 0 0 1 7.947-5.734" data-name="Path 763" transform="translate(-6.183)" style="fill:#ea4335;fill-rule:evenodd"/>
            <path id="prefix__Path_764" d="M20.653 81.615a8.349 8.349 0 0 1-7.947-5.734l-4.768 3.64A14.125 14.125 0 0 0 20.653 87.4a13.5 13.5 0 0 0 9.231-3.526l-4.526-3.5a8.764 8.764 0 0 1-4.705 1.237" data-name="Path 764" transform="translate(-6.183 -59.107)" style="fill:#34a853;fill-rule:evenodd"/>
            <path id="prefix__Path_765" d="M78.981 54.936a11.718 11.718 0 0 0-.322-2.572h-13.2v5.466h7.6a6.371 6.371 0 0 1-2.894 4.229l4.526 3.5a14.071 14.071 0 0 0 4.293-10.622" data-name="Path 765" transform="translate(-50.987 -40.788)" style="fill:#4285f4;fill-rule:evenodd"/>
        </g>
    </g>
</svg>
