<svg id="Layer_1" data-name="Layer 1" xmlns="http://www.w3.org/2000/svg" xmlns:xlink="http://www.w3.org/1999/xlink" viewBox="0 0 341.52 197.19"><defs><style>.cls-1,.cls-5{fill:none;}.cls-2{clip-path:url(#clip-path);}.cls-3{fill:#ce0e2d;}.cls-3,.cls-4{fill-rule:evenodd;}.cls-4{fill:#231f20;}.cls-5{stroke:#c1162d;stroke-miterlimit:22.93;stroke-width:0.08px;}</style><clipPath id="clip-path" transform="translate(-239.04 -209.83)"><rect class="cls-1" x="212.94" y="5.96" width="390.6" height="585.89"/></clipPath></defs><title>semendel-logo</title><g class="cls-2"><g class="cls-2"><path class="cls-3" d="M407.18,289.34c8.9,5.61,19-7.57,23.49,7-6.49-12.53-15.9,2.11-23.49-7" transform="translate(-239.04 -209.83)"/><path class="cls-3" d="M408.56,293.18c4.28,2.2,5.77,1.49,10.27-.8-4.78,1-5.68,1.75-10.27.8" transform="translate(-239.04 -209.83)"/><path class="cls-3" d="M424.57,306.08c-6.07,3.76-5.41,8.13-3.32,13.41,1.22,3.1,4.31,9.94,5.71,11.67,4.36,5.37,1.84,7.64-1.28,3.82-.54-.66-1-1.28-1.46-1.92a79,79,0,0,1-5.37-11.77c-1.93-6-1.5-12.57,5.72-15.21" transform="translate(-239.04 -209.83)"/><path class="cls-3" d="M337.84,247.94C337.7,275,356.6,299.74,392,322.47c-26.69-24.59-45.9-49.4-54.15-74.53" transform="translate(-239.04 -209.83)"/><path class="cls-3" d="M292.38,281.49c2.91-4.2,17.53-16.2,32.61-15.6-18.44-2.69-29.93-1.76-32.61,15.6" transform="translate(-239.04 -209.83)"/><path class="cls-3" d="M300.94,285.79c2.44-3.51,14.67-13.55,27.29-13.05-15.42-2.25-25-1.47-27.29,13.05" transform="translate(-239.04 -209.83)"/><path class="cls-3" d="M311.61,290c1.87-2.69,11.25-10.39,20.94-10-11.84-1.73-19.22-1.13-20.94,10" transform="translate(-239.04 -209.83)"/><path class="cls-3" d="M321.54,294.15c1.52-2.2,9.17-8.48,17.06-8.16-9.65-1.41-15.66-.92-17.06,8.16" transform="translate(-239.04 -209.83)"/><path class="cls-3" d="M330.67,299c1.22-1.76,7.34-6.78,13.65-6.53-7.72-1.12-12.52-.73-13.65,6.53" transform="translate(-239.04 -209.83)"/><path class="cls-3" d="M343.81,296.31c6.84,15,27,19.25,41.4,24.62-15.74-7.37-28.76-13.15-41.4-24.62" transform="translate(-239.04 -209.83)"/><path class="cls-3" d="M388.29,322.71c-16.42-2.6-19.93-1.57-28.44-10,3.28,11.19,21.08,10,28.44,10" transform="translate(-239.04 -209.83)"/><path class="cls-3" d="M387.27,324.1c-11.72,1.19-13.94,2.53-21.3-1.7,4.28,7.07,16.26,3,21.3,1.7" transform="translate(-239.04 -209.83)"/><path class="cls-3" d="M239,209.83c9.21,20.84,42.23,28.19,63.83,31,7.37,1.66,14.58,3.06,21.05,4.46a681.45,681.45,0,0,1-69.58-12.21c20.32,15.59,38.41,15.27,68.72,14.17a519.14,519.14,0,0,1-62.72,2.9c16,12.31,33.64,6.52,60,.55-15.14,5.11-28.16,9.41-43.72,13.08,9.4,3.57,19.17,3,33.31-4.62l1-.63c6.46-4.49,14-2.58,17.1,4.25l3.13,5.55c2.51,4.29,4.88,8.55,7.78,12.6,13,18.13,32.24,31.67,51.43,41.87-12.32-7.82-22.15-14.71-32.49-25-7-6.95-13.42-14.52-18.46-23.7-.61-1.1-1.24-2.23-1.84-3.4a58.8,58.8,0,0,1-4.49-11.39c-1.19-4.49-.36-13.09-3.39-15.67a6.48,6.48,0,0,0-2.34-1.38c-16.38-4.55-63.76-11-76.93-31.81,3.06,6.92,5.06,11.25,9.72,14.48-8.82-4.25-16.46-9.28-21.08-15.11" transform="translate(-239.04 -209.83)"/><path class="cls-3" d="M391.73,330.13c2.58-3.1,6.08-10.6,7.22-12.76,6.46-12.26,3.06-21.08,17.1-21.87-14.27,1.8-10.48,19.37-19.77,36.36-3.15,5.7-8.81,4.52-4.55-1.73" transform="translate(-239.04 -209.83)"/><path class="cls-4" d="M528.18,311.42a20.9,20.9,0,0,1,2.86.37,11.49,11.49,0,0,1,2.77.9,14.75,14.75,0,0,1,4.63,3.18,14.23,14.23,0,0,1,3.19,4.77,15.07,15.07,0,0,1,1.09,5.68v46.07a4.68,4.68,0,0,0,1.31,3.36,5.07,5.07,0,0,0,3.32,1.54.64.64,0,0,1,.72.73c0,.48-.27.73-.81.73a14.38,14.38,0,0,1-5.63-1.19,15.77,15.77,0,0,1-4.64-3.18,14.22,14.22,0,0,1-3.18-4.81,15,15,0,0,1-1.09-5.63V317.87a4.82,4.82,0,0,0-1.32-3.41,4.63,4.63,0,0,0-3.31-1.5c-.49,0-.73-.27-.73-.81s.27-.73.82-.73m-.76,52a1.47,1.47,0,0,0-.55-.18h-1.36c-2.79,0-4.79.69-6,2.09s-1.91,3.82-1.91,7.09a4.77,4.77,0,0,1-1.31,3.4,4.65,4.65,0,0,1-3.32,1.5h-.27a5.1,5.1,0,0,1-3.32-1.54,4.65,4.65,0,0,1-1.32-3.36V341.24a4.65,4.65,0,0,1,1.32-3.36,4.79,4.79,0,0,1,3.32-1.46h.36a4.7,4.7,0,0,1,3.23,1.46,4.64,4.64,0,0,1,1.31,3.36v11.84a4.68,4.68,0,0,1-1.31,3.36c-.87.9-4.42.81-5.75.93a.64.64,0,0,0-.73.73c0,.06,0,2.34.05,2.38a.76.76,0,0,0,.77.58l2.78,0c3.59,0,5.3-.15,8.21-2.3a15,15,0,0,0,1.71-1.48,14.22,14.22,0,0,0,3.18-4.81,15.21,15.21,0,0,0,1.09-5.64,14.88,14.88,0,0,0-1.09-5.59,14.41,14.41,0,0,0-3.18-4.76,13.63,13.63,0,0,0-4.63-3.19,13.33,13.33,0,0,0-5.64-1.27h-.45a14.92,14.92,0,0,0-5.64,1.19,16.58,16.58,0,0,0-4.63,3.27,14.26,14.26,0,0,0-3.18,4.76,14.69,14.69,0,0,0-1.09,5.59v17.09a15,15,0,0,0,1.09,5.63,14.07,14.07,0,0,0,3.18,4.81,18.76,18.76,0,0,0,4.63,3.18,14.92,14.92,0,0,0,5.64,1.19H513a13.83,13.83,0,0,0,5.73-1.19,14.53,14.53,0,0,0,4.63-3.18,14.22,14.22,0,0,0,3.18-4.81,15.2,15.2,0,0,0,1.09-5.63,1.41,1.41,0,0,0-.18-.55M478.52,332a.64.64,0,0,1,.72.73.81.81,0,0,1-.72.82,4.76,4.76,0,0,0-3.27,1.45,4.54,4.54,0,0,0-1.37,3.37v30.34c0,5.51,6.58,5.22,8.45,3.29.84-.87,1.18-2.31,1.18-4.53V326.32a14.6,14.6,0,0,1,4.18-10.45,14.79,14.79,0,0,1,4.64-3.18,16.72,16.72,0,0,1,5.72-1.27.65.65,0,0,1,.73.73c0,.54-.25.81-.73.81a4.89,4.89,0,0,0-4.63,4.91v54.52a4.8,4.8,0,0,0,4.9,4.9.73.73,0,0,1,0,1.46h-.27a14.14,14.14,0,0,1-5.13-1,14,14,0,0,1-4.5-2.77c-.61.49-1.23,1-1.87,1.41a9.63,9.63,0,0,1-1.82,1,1.45,1.45,0,0,1-.22.09h-.06l-2.61.88-1.93.26-1.15,0a.93.93,0,0,1-.24,0,15.13,15.13,0,0,1-5.73-1.19,18.57,18.57,0,0,1-4.63-3.18A14.54,14.54,0,0,1,464,363.94V346.85a15.45,15.45,0,0,1,1-5.59,13.71,13.71,0,0,1,3.14-4.76,14.89,14.89,0,0,1,4.63-3.19,13.9,13.9,0,0,1,5.73-1.27m-23.39,4.46a14.29,14.29,0,0,1,3.19,4.76,14.88,14.88,0,0,1,1.09,5.59v22.72q0,4.9-1.92,7.09t-6,2.09h-1.37a.65.65,0,0,1-.72-.73V341.24a4.65,4.65,0,0,0-1.32-3.36,4.79,4.79,0,0,0-3.31-1.46h-.1l-.44,0a3.25,3.25,0,0,0-.44,0h-.09a4.8,4.8,0,0,0-3.32,1.46,4.66,4.66,0,0,0-1.32,3.36V378a.65.65,0,0,1-.73.73H437c-2.79,0-4.78-.7-6-2.09s-1.91-3.82-1.91-7.09V346.85a14.69,14.69,0,0,1,1.09-5.59,14.23,14.23,0,0,1,3.17-4.76,15.05,15.05,0,0,1,4.64-3.19,13.74,13.74,0,0,1,5.64-1.27h1.25a13.7,13.7,0,0,1,5.63,1.27,14.78,14.78,0,0,1,4.63,3.19m-68.44,0a14.41,14.41,0,0,1,3.18,4.76,14.69,14.69,0,0,1,1.09,5.59v22.72q0,4.9-1.91,7.09t-6,2.09h-1.27c-.54,0-.82-.25-.82-.73V341.24a4.73,4.73,0,0,0-4.54-4.82h-.18a4.83,4.83,0,0,0-4.82,4.82v28.33c0,3.27-.63,5.63-1.91,7.09-1.89,2.17-4.35,2.17-6.23,0q-1.9-2.19-1.91-7.09V341.24a4.83,4.83,0,0,0-4.81-4.82h-.19a4.75,4.75,0,0,0-4.54,4.82V378c0,.48-.28.73-.82.73h-1.27c-2.79,0-4.78-.7-6-2.09s-1.9-3.82-1.9-7.09V346.85a14.87,14.87,0,0,1,1.08-5.59,14.29,14.29,0,0,1,3.19-4.76,13.53,13.53,0,0,1,4.63-3.19,13.28,13.28,0,0,1,5.63-1.27h.37a14.4,14.4,0,0,1,9.63,3.73l0,0,0,0a14.4,14.4,0,0,1,9.64-3.73h.36a13.25,13.25,0,0,1,5.63,1.27,13.57,13.57,0,0,1,4.64,3.19m-50,26.89a1.31,1.31,0,0,1,.19.55,15.2,15.2,0,0,1-1.09,5.63,14.22,14.22,0,0,1-3.18,4.81,14.57,14.57,0,0,1-4.64,3.18,13.75,13.75,0,0,1-5.72,1.19h-.36a14.92,14.92,0,0,1-5.64-1.19,18.57,18.57,0,0,1-4.63-3.18,14.07,14.07,0,0,1-3.18-4.81,15,15,0,0,1-1.09-5.63V346.85a14.69,14.69,0,0,1,1.09-5.59,14.26,14.26,0,0,1,3.18-4.76,16.44,16.44,0,0,1,4.63-3.27A14.92,14.92,0,0,1,321.9,332h.45a13.28,13.28,0,0,1,5.63,1.27,13.66,13.66,0,0,1,4.64,3.19,14.41,14.41,0,0,1,3.18,4.76,14.88,14.88,0,0,1,1.09,5.59,15.21,15.21,0,0,1-1.09,5.64,14.22,14.22,0,0,1-3.18,4.81,15.91,15.91,0,0,1-1.71,1.48c-2.91,2.15-4.62,2.29-8.21,2.3l-2.78,0a.78.78,0,0,1-.78-.58s0-2.32,0-2.38a.64.64,0,0,1,.73-.73c1.32-.12,4.87,0,5.74-.93a4.65,4.65,0,0,0,1.32-3.36V341.24a4.75,4.75,0,0,0-4.54-4.82H322a4.79,4.79,0,0,0-3.31,1.46,4.65,4.65,0,0,0-1.32,3.36v31.15a4.65,4.65,0,0,0,1.32,3.36,5.09,5.09,0,0,0,3.31,1.54h.28a4.63,4.63,0,0,0,3.31-1.5,4.77,4.77,0,0,0,1.32-3.4c0-3.27.64-5.64,1.91-7.09s3.21-2.09,6-2.09h1.36a1.38,1.38,0,0,1,.54.18m-33.78,3.45a9,9,0,0,1-.32,2.41,15.69,15.69,0,0,1-.86,2.32,21.34,21.34,0,0,1-1.41,1.95,12.4,12.4,0,0,1-1.77,1.78,14.32,14.32,0,0,1-4.73,2.58,17.56,17.56,0,0,1-5.54.87h-.09a13.75,13.75,0,0,1-5.72-1.19,14.46,14.46,0,0,1-4.64-3.18,14.22,14.22,0,0,1-3.18-4.81,15.16,15.16,0,0,1-1.09-5.63.77.77,0,0,1,.82-.73h1.27c2.79,0,4.79.69,6,2.09s1.91,1.18,1.91,4.45c0,4.93,4.66,5.79,7.47,2.89,2.43-2.51,2.78-9.26,1.11-12.36-3.14-5.87-13.53-3.41-17.67-12.06a10.27,10.27,0,0,1-.68-2.05,10,10,0,0,1,.95-6.86,12.54,12.54,0,0,1,3.18-3.81A15.56,15.56,0,0,1,288.2,332h.09a13.47,13.47,0,0,1,2.95.32,18.5,18.5,0,0,1,2.77.87,15.77,15.77,0,0,1,4.64,3.18,14.22,14.22,0,0,1,3.18,4.81,15,15,0,0,1,1.09,5.63.72.72,0,0,1-.82.82h-1.27c-9.33,0-6.67-7.15-9.27-9.83a4.5,4.5,0,0,0-3.36-1.42c-4.3,0-4.91,5.61-4.78,8.84.28,7.44,19.5,7.73,19.5,21.58m121.55-3.45a1.41,1.41,0,0,1,.18.55,15,15,0,0,1-1.09,5.63,14.22,14.22,0,0,1-3.18,4.81,14.53,14.53,0,0,1-4.63,3.18,13.83,13.83,0,0,1-5.73,1.19h-.36a14.84,14.84,0,0,1-5.63-1.19,18.62,18.62,0,0,1-4.64-3.18,14.22,14.22,0,0,1-3.18-4.81,15,15,0,0,1-1.09-5.63V346.85a14.69,14.69,0,0,1,1.09-5.59,14.41,14.41,0,0,1,3.18-4.76,16.63,16.63,0,0,1,4.64-3.27,14.84,14.84,0,0,1,5.63-1.19h.45a13.33,13.33,0,0,1,5.64,1.27,13.63,13.63,0,0,1,4.63,3.19,14.41,14.41,0,0,1,3.18,4.76,14.69,14.69,0,0,1,1.09,5.59,15,15,0,0,1-1.09,5.64,14.76,14.76,0,0,1-4.89,6.29c-2.91,2.15-4.61,2.29-8.21,2.3l-2.78,0a.77.77,0,0,1-.77-.58s0-2.32-.05-2.38a.65.65,0,0,1,.73-.73c1.33-.12,4.88,0,5.75-.93a4.69,4.69,0,0,0,1.32-3.36V341.24a4.75,4.75,0,0,0-4.55-4.82h-.36a4.79,4.79,0,0,0-3.32,1.46,4.65,4.65,0,0,0-1.32,3.36v31.15a4.65,4.65,0,0,0,1.32,3.36,5.1,5.1,0,0,0,3.32,1.54H410a4.65,4.65,0,0,0,3.32-1.5,4.77,4.77,0,0,0,1.32-3.4c0-3.27.63-5.64,1.9-7.09s3.22-2.09,6-2.09h1.36a1.37,1.37,0,0,1,.55.18" transform="translate(-239.04 -209.83)"/><path class="cls-4" d="M349.48,402.76c-.53,1.35-1.26,3.32-3.09,3.32a4.43,4.43,0,0,1-1-.11l-.11.92a5.69,5.69,0,0,0,1.29.13c1.81,0,3-1.07,3.88-3.59l4.3-11.7h-1.16l-3.49,9.78h0l-3.79-9.78h-1.21Zm19.8-2.07a5,5,0,0,1-3.28,1.17c-1.89,0-2.86-.95-2.86-2.26,0-1.47.8-2.42,3.51-2.42h2.63Zm-2.84-8.25c2.11,0,2.84.91,2.84,2.63v1.4h-2.69c-2.93,0-4.53,1-4.53,3.21,0,1.92,1.4,3,3.56,3a5.4,5.4,0,0,0,3.61-1.28h0v1.07h1.07V395c0-2.69-1.29-3.51-3.7-3.51a20.22,20.22,0,0,0-3.85.41l.17.88a17.08,17.08,0,0,1,3.47-.37m17,10.32c-.54,1.35-1.27,3.32-3.1,3.32a4.43,4.43,0,0,1-1-.11l-.11.92a5.78,5.78,0,0,0,1.3.13c1.8,0,3-1.07,3.87-3.59l4.3-11.7h-1.16l-3.48,9.78h-.05l-3.79-9.78h-1.2Zm14.49-.26H399V391.73h-1.08Zm11.64-8.42a6.38,6.38,0,0,1,3.76-1.64c2,0,2.59,1.23,2.59,2.8v7.26H417V395c0-2.32-1.07-3.51-3.23-3.51a6.13,6.13,0,0,0-4.15,1.83h0v-1.62H408.5V402.5h1.08Zm16.9,8.42h1.08V387.43h-1.08Zm17.45-1.81a5.09,5.09,0,0,1-3.28,1.17c-1.9,0-2.86-.95-2.86-2.26,0-1.47.79-2.42,3.51-2.42h2.63Zm-2.84-8.25c2.1,0,2.84.91,2.84,2.63v1.4h-2.7c-2.93,0-4.52,1-4.52,3.21,0,1.92,1.4,3,3.56,3a5.4,5.4,0,0,0,3.61-1.28h.05v1.07H445V395c0-2.69-1.29-3.51-3.7-3.51a20.32,20.32,0,0,0-3.86.41l.18.88a17.08,17.08,0,0,1,3.47-.37m14.46,1.75a8.13,8.13,0,0,1,4.42-1.64v-1a6.83,6.83,0,0,0-4.37,1.94h-.05v-1.73h-1.07V402.5h1.07ZM469,402.5h1.08V391.73H469Z" transform="translate(-239.04 -209.83)"/><path class="cls-3" d="M481.76,247.94c.14,27.06-18.76,51.8-54.15,74.53,26.69-24.59,45.9-49.4,54.15-74.53" transform="translate(-239.04 -209.83)"/><path class="cls-3" d="M527.22,281.49c-2.91-4.2-17.53-16.2-32.61-15.6,18.44-2.69,29.93-1.76,32.61,15.6" transform="translate(-239.04 -209.83)"/><path class="cls-3" d="M518.66,285.79c-2.44-3.51-14.67-13.55-27.3-13.05,15.44-2.25,25-1.47,27.3,13.05" transform="translate(-239.04 -209.83)"/><path class="cls-3" d="M508,290c-1.86-2.69-11.25-10.39-20.93-10,11.83-1.73,19.21-1.13,20.93,10" transform="translate(-239.04 -209.83)"/><path class="cls-3" d="M498.06,294.15c-1.52-2.2-9.17-8.48-17.06-8.16,9.65-1.41,15.65-.92,17.06,8.16" transform="translate(-239.04 -209.83)"/><path class="cls-5" d="M498.06,294.15c-1.52-2.2-9.17-8.48-17.06-8.16C490.65,284.58,496.65,285.07,498.06,294.15Z" transform="translate(-239.04 -209.83)"/><path class="cls-3" d="M488.93,299c-1.22-1.76-7.34-6.78-13.65-6.53,7.72-1.12,12.52-.73,13.65,6.53" transform="translate(-239.04 -209.83)"/><path class="cls-3" d="M475.79,296.31c-6.85,15-27,19.25-41.4,24.62,15.74-7.37,28.77-13.15,41.4-24.62" transform="translate(-239.04 -209.83)"/><path class="cls-3" d="M431.31,322.71c16.42-2.6,19.94-1.57,28.44-10-3.28,11.19-21.08,10-28.44,10" transform="translate(-239.04 -209.83)"/><path class="cls-3" d="M432.33,324.1c11.72,1.19,13.95,2.53,21.3-1.7-4.28,7.07-16.26,3-21.3,1.7" transform="translate(-239.04 -209.83)"/><path class="cls-3" d="M580.56,209.83c-9.21,20.84-42.23,28.19-63.83,31-7.37,1.66-14.58,3.06-21.05,4.46a681,681,0,0,0,69.58-12.21c-20.32,15.59-38.42,15.27-68.72,14.17a519,519,0,0,0,62.72,2.9c-16,12.31-33.63,6.52-60,.55,15.15,5.11,28.17,9.41,43.73,13.08-9.4,3.57-19.17,3-33.31-4.62l-1-.63c-6.46-4.49-14-2.58-17.1,4.25l-3.13,5.55c-2.51,4.29-4.88,8.55-7.78,12.6-13,18.13-32.24,31.67-51.43,41.87,12.32-7.82,22.15-14.71,32.49-25,7-6.95,13.42-14.52,18.46-23.7.61-1.1,1.24-2.23,1.83-3.4a58.2,58.2,0,0,0,4.5-11.39c1.19-4.49.35-13.09,3.39-15.67a6.4,6.4,0,0,1,2.34-1.38c16.38-4.55,63.76-11,76.93-31.81-3.06,6.92-5.06,11.25-9.72,14.48,8.83-4.25,16.46-9.28,21.08-15.11" transform="translate(-239.04 -209.83)"/><polygon class="cls-3" points="175.16 81.73 164.21 72.94 178.04 81.53 175.16 81.73"/><polygon class="cls-3" points="177.03 81.08 165.42 68.1 179.91 80.87 177.03 81.08"/><polygon class="cls-3" points="178.93 80.19 168.99 64.64 181.81 79.98 178.93 80.19"/><polygon class="cls-3" points="181.41 79.89 175.3 66.96 184.28 79.68 181.41 79.89"/><polygon class="cls-3" points="184.33 79.79 181.2 70.65 187.43 80.1 184.33 79.79"/></g></g></svg>